# xmcd
#
# Track frame offsets:
# 150
# 17578
# 38554
# 55205
# 68168
# 82433
# 97938
# 111991
# 132743
# 150337
# 164270
# 178274
# 200276
# 213745
# 233673
# 244809
# 262544
#
# Disc length: 3659 seconds
#
#
# Revision: 0
# Processed by: cddbd v1.5.2PL0 Copyright (c) Steve Scherf et al.
# Submitted via: FreeRIP 2.942 
#
DISCID=e50e4911
DTITLE=CEJKA BAND - THE BEST OF 
DYEAR=2007
DGENRE=Pop
TTITLE0=Bílá zahrada
TTITLE1=Synek z Moravy
TTITLE2=Nocní královna
TTITLE3=Na Bejkárne
TTITLE4=Tak uz to chodí
TTITLE5=Je mi fajn
TTITLE6=Abstinuju (How do you do)
TTITLE7=Stále touzím
TTITLE8=Sen o Lucii
TTITLE9=Prosenická
TTITLE10=Hvezdicka
TTITLE11=Prsí
TTITLE12=Náhodou
TTITLE13=Vecernícek (Jednou je málo)
TTITLE14=Zimní
TTITLE15=Jahodový víno
TTITLE16=Uz me dlouho znás
EXTD=
EXTT0=
EXTT1=
EXTT2=
EXTT3=
EXTT4=
EXTT5=
EXTT6=
EXTT7=
EXTT8=
EXTT9=
EXTT10=
EXTT11=
EXTT12=
EXTT13=
EXTT14=
EXTT15=
EXTT16=
PLAYORDER=
